<?xml version="1.0" encoding="iso-8859-1"?>
<!-- Generator: Adobe Illustrator 19.0.0, SVG Export Plug-In . SVG Version: 6.00 Build 0)  -->
<svg version="1.1" id="Capa_1" xmlns="http://www.w3.org/2000/svg" xmlns:xlink="http://www.w3.org/1999/xlink" x="0px" y="0px"
	 viewBox="0 0 512 512" style="enable-background:new 0 0 512 512;" xml:space="preserve">
<path style="fill:#303C42;" d="M437.333,0H74.667C68.771,0,64,4.771,64,10.667v42.667C64,59.229,68.771,64,74.667,64H224v43.51
	c-66.461,3.678-93.238,18.738-113.469,30.125l-3.833,2.156c-13.177,7.313-21.365,21.49-21.365,36.979v265.125
	c0,15.49,8.188,29.667,21.365,36.979l3.833,2.156C133.74,494.094,165.521,512,256,512s122.26-17.906,145.469-30.969l3.833-2.156
	c13.177-7.313,21.365-21.49,21.365-36.979V176.771c0-15.49-8.188-29.667-21.365-36.979l-3.833-2.156
	c-20.23-11.387-47.008-26.447-113.469-30.125V64h149.333C443.229,64,448,59.229,448,53.333V10.667C448,4.771,443.229,0,437.333,0z"
	/>
<path style="fill:#DFE1DF;" d="M394.948,158.438c6.406,3.563,10.385,10.583,10.385,18.333v265.125
	c0,7.75-3.979,14.771-10.385,18.333L391,462.438c-21.146,11.917-50.115,28.229-135,28.229s-113.854-16.313-135-28.229l-3.948-2.208
	c-6.406-3.563-10.385-10.583-10.385-18.333V176.771c0-7.75,3.979-14.771,10.385-18.333l3.948-2.208
	C142.146,144.313,171.115,128,256,128s113.854,16.313,135,28.229L394.948,158.438z"/>
<path style="opacity:0.2;fill:#FFFFFF;enable-background:new    ;" d="M136.902,460.229c-5.492-3.563-8.902-10.583-8.902-18.333
	V176.771c0-7.75,3.41-14.771,8.902-18.333l3.383-2.208C158.41,144.313,183.241,128,256,128c-84.885,0-113.854,16.313-135,28.229
	l-3.948,2.208c-6.406,3.563-10.385,10.583-10.385,18.333v265.125c0,7.75,3.979,14.771,10.385,18.333l3.948,2.208
	c21.146,11.917,50.115,28.229,135,28.229c-72.759,0-97.59-16.313-115.715-28.229L136.902,460.229z"/>
<path style="opacity:0.1;enable-background:new    ;" d="M394.948,158.438L391,156.229C369.854,144.313,340.885,128,256,128
	c72.759,0,97.59,16.313,115.715,28.229l3.383,2.208C380.59,162,384,169.021,384,176.771v265.125c0,7.75-3.41,14.771-8.902,18.333
	l-3.383,2.208C353.59,474.354,328.759,490.667,256,490.667c84.885,0,113.854-16.313,135-28.229l3.948-2.208
	c6.406-3.563,10.385-10.583,10.385-18.333V176.771C405.333,169.021,401.354,162,394.948,158.438z"/>
<path style="fill:#303C42;" d="M155.229,267.792c-3.615,1.813-5.896,5.5-5.896,9.542v149.333c0,4.042,2.281,7.74,5.896,9.542
	C157.646,437.417,181,448,256.021,448s98.344-10.583,100.75-11.792c3.615-1.813,5.896-5.5,5.896-9.542V277.333
	c0-4.042-2.281-7.729-5.896-9.542C354.354,266.583,331.021,256,256,256S157.646,266.583,155.229,267.792z"/>
<path style="fill:#FAFAFA;" d="M341.333,419c-10.438,2.813-35.646,7.667-85.313,7.667c-49.771,0-75-4.875-85.354-7.656V285
	c10.448-2.813,35.656-7.667,85.333-7.667c49.771,0,74.99,4.875,85.333,7.656V419z"/>
<path style="opacity:0.1;enable-background:new    ;" d="M256,277.333c37.328,0,56.242,4.875,64,7.656V419
	c-7.828,2.813-26.736,7.667-63.982,7.667h0.003c49.667,0,74.875-4.854,85.313-7.667V284.99
	C330.99,282.208,305.771,277.333,256,277.333z"/>
<path style="opacity:0.2;fill:#FFFFFF;enable-background:new    ;" d="M170.667,419.01c10.353,2.781,35.578,7.654,85.333,7.656
	c-37.318-0.003-56.236-4.875-64-7.656V285c7.836-2.813,26.742-7.667,64-7.667c-49.677,0-74.885,4.854-85.333,7.667V419.01z"/>
<path style="fill:#EE3124;" d="M234.667,192c0,11.76,9.573,21.333,21.333,21.333c11.76,0,21.333-9.573,21.333-21.333
	c0-11.76-9.573-21.333-21.333-21.333C244.24,170.667,234.667,180.24,234.667,192z"/>
<g>
	<path style="fill:#DFE1DF;" d="M266.667,106.801c-3.51-0.059-6.964-0.134-10.667-0.134s-7.156,0.076-10.667,0.134V64h21.333
		V106.801z"/>
	<rect x="85.333" y="21.333" style="fill:#DFE1DF;" width="341.333" height="21.333"/>
</g>
<linearGradient id="SVGID_1_" gradientUnits="userSpaceOnUse" x1="-46.1151" y1="640.9231" x2="-24.1935" y2="630.7013" gradientTransform="matrix(21.3333 0 0 -21.3333 996.3334 13791.667)">
	<stop  offset="0" style="stop-color:#FFFFFF;stop-opacity:0.2"/>
	<stop  offset="1" style="stop-color:#FFFFFF;stop-opacity:0"/>
</linearGradient>
<path style="fill:url(#SVGID_1_);" d="M437.333,0H74.667C68.771,0,64,4.771,64,10.667v42.667C64,59.229,68.771,64,74.667,64H224
	v43.51c-66.461,3.678-93.238,18.738-113.469,30.125l-3.833,2.156c-13.177,7.313-21.365,21.49-21.365,36.979v265.125
	c0,15.49,8.188,29.667,21.365,36.979l3.833,2.156C133.74,494.094,165.521,512,256,512s122.26-17.906,145.469-30.969l3.833-2.156
	c13.177-7.313,21.365-21.49,21.365-36.979V176.771c0-15.49-8.188-29.667-21.365-36.979l-3.833-2.156
	c-20.23-11.387-47.008-26.447-113.469-30.125V64h149.333C443.229,64,448,59.229,448,53.333V10.667C448,4.771,443.229,0,437.333,0z"
	/>
<g>
</g>
<g>
</g>
<g>
</g>
<g>
</g>
<g>
</g>
<g>
</g>
<g>
</g>
<g>
</g>
<g>
</g>
<g>
</g>
<g>
</g>
<g>
</g>
<g>
</g>
<g>
</g>
<g>
</g>
</svg>
